<?xml version="1.0" encoding="UTF-8"?>
<svg xmlns="http://www.w3.org/2000/svg" xmlns:xlink="http://www.w3.org/1999/xlink" width="108px" height="85px" viewBox="0 0 107 85" version="1.1">
<g id="surface1">
<path style=" stroke:none;fill-rule:nonzero;fill:rgb(0%,0%,0%);fill-opacity:1;" d="M 77.488281 4.808594 L 72.886719 0 C 65.207031 7.433594 57.011719 13.601562 49.050781 18.007812 C 44.6875 13.296875 39.480469 10.902344 33.550781 10.902344 L 33.527344 10.902344 C 27.15625 10.949219 21.597656 13.695312 17 19.039062 C 12.492188 24.292969 10.207031 30.625 10.207031 37.867188 C 10.207031 45.089844 12.492188 51.445312 17 56.746094 C 21.574219 62.113281 27.132812 64.859375 33.503906 64.859375 C 37.707031 64.859375 41.675781 63.589844 45.246094 61.105469 C 48.773438 58.667969 51.597656 55.316406 53.628906 51.1875 C 55.636719 47.085938 56.664062 42.605469 56.664062 37.890625 C 56.6875 32.570312 55.472656 27.738281 53.019531 23.425781 C 61.261719 18.757812 69.667969 12.378906 77.488281 4.808594 Z M 33.550781 17.398438 C 37.214844 17.421875 40.390625 18.617188 43.121094 20.984375 C 41.949219 21.519531 40.757812 22.011719 39.550781 22.464844 C 31.613281 25.464844 25.078125 25.957031 21.039062 23.964844 C 21.226562 23.707031 21.433594 23.449219 21.644531 23.214844 C 24.9375 19.273438 28.835938 17.398438 33.550781 17.398438 Z M 50.21875 37.890625 C 50.265625 43.777344 48.65625 48.585938 45.316406 52.570312 C 42.074219 56.464844 38.195312 58.363281 33.503906 58.363281 L 33.480469 58.363281 C 28.8125 58.386719 24.9375 56.511719 21.644531 52.617188 C 18.285156 48.609375 16.648438 43.777344 16.648438 37.890625 C 16.648438 34.960938 17.046875 32.289062 17.886719 29.851562 C 20.453125 31.164062 23.511719 31.820312 27.015625 31.820312 C 31.378906 31.820312 36.398438 30.789062 41.910156 28.699219 C 43.785156 27.992188 45.632812 27.203125 47.441406 26.332031 C 49.285156 29.636719 50.21875 33.507812 50.21875 37.890625 Z M 50.21875 37.890625 "/>
<path style=" stroke:none;fill-rule:nonzero;fill:rgb(0%,0%,0%);fill-opacity:1;" d="M 64.902344 34.75 L 59.089844 34.75 L 59.089844 60.261719 L 64.902344 60.261719 Z M 67.730469 34.65625 L 67.730469 40.519531 L 74.453125 40.519531 L 74.453125 60.167969 L 80.265625 60.167969 L 80.265625 40.519531 L 86.941406 40.519531 L 86.941406 34.65625 Z M 67.730469 34.65625 "/>
<path style=" stroke:none;fill-rule:nonzero;fill:rgb(95.294118%,84.705883%,39.215687%);fill-opacity:1;" d="M 27.433594 34.375 L 25.425781 33.507812 L 25.425781 33.226562 L 26.570312 29.78125 C 28.136719 28.160156 29.09375 26.730469 29.441406 25.464844 C 29.164062 25.089844 28.789062 24.902344 28.296875 24.878906 C 27.503906 24.878906 26.289062 26.308594 24.726562 29.191406 C 23.164062 33.179688 22.296875 35.195312 22.160156 35.21875 L 22.019531 35.21875 C 20.035156 29.660156 18.75 26.871094 18.144531 26.871094 L 17.558594 26.871094 C 17.1875 26.988281 16.976562 27.433594 16.976562 28.160156 L 16.976562 28.441406 C 16.976562 29.121094 17.070312 29.660156 17.257812 30.015625 C 18.679688 32.40625 19.402344 34.445312 19.402344 36.203125 L 19.402344 36.34375 C 19.378906 36.554688 18.914062 36.835938 17.980469 37.210938 C 14.058594 37.351562 12.121094 37.75 12.121094 38.363281 C 12.121094 39.488281 12.84375 40.144531 14.269531 40.378906 L 14.269531 40.660156 C 11.488281 42.769531 10.113281 44.011719 10.113281 44.386719 C 10.113281 44.855469 10.4375 45.347656 11.117188 45.816406 L 11.535156 45.816406 C 16.183594 41.503906 19.007812 39.347656 19.988281 39.347656 L 20.269531 39.347656 L 20.40625 39.488281 L 18.984375 46.519531 C 18.984375 46.992188 19.171875 47.296875 19.566406 47.390625 C 20.199219 47.390625 20.921875 46.191406 21.714844 43.800781 L 22.136719 43.800781 C 23.980469 45.160156 25.171875 45.886719 25.707031 45.957031 L 25.707031 45.816406 L 25.988281 45.816406 L 25.988281 45.230469 C 24.261719 42.347656 23.417969 40.496094 23.417969 39.628906 L 23.417969 38.902344 C 24.28125 37.070312 26.6875 36.179688 30.585938 36.179688 L 32.453125 36.601562 L 33.457031 35.59375 L 33.457031 35.3125 C 33.433594 34.914062 31.425781 34.5625 27.433594 34.375 Z M 27.433594 34.375 "/>
<path style=" stroke:none;fill-rule:nonzero;fill:rgb(0%,0%,0%);fill-opacity:1;" d="M 14.058594 83.101562 C 13.957031 83.007812 13.847656 82.929688 13.730469 82.867188 C 13.613281 82.796875 13.449219 82.796875 13.3125 82.796875 C 13.171875 82.796875 13.007812 82.820312 12.890625 82.867188 C 12.761719 82.914062 12.648438 82.996094 12.5625 83.101562 C 12.46875 83.203125 12.390625 83.324219 12.332031 83.453125 C 12.261719 83.59375 12.261719 83.734375 12.261719 83.875 C 12.261719 84.015625 12.285156 84.179688 12.332031 84.296875 C 12.378906 84.414062 12.445312 84.53125 12.5625 84.648438 C 12.65625 84.742188 12.773438 84.8125 12.890625 84.882812 C 13.03125 84.929688 13.171875 84.953125 13.3125 84.953125 C 13.449219 84.953125 13.613281 84.929688 13.730469 84.882812 C 13.863281 84.839844 13.976562 84.757812 14.058594 84.648438 C 14.152344 84.554688 14.222656 84.4375 14.292969 84.296875 C 14.363281 84.15625 14.363281 84.015625 14.363281 83.875 C 14.363281 83.734375 14.339844 83.570312 14.292969 83.453125 C 14.246094 83.316406 14.164062 83.195312 14.058594 83.101562 Z M 14.082031 84.203125 C 14.046875 84.308594 13.992188 84.402344 13.917969 84.484375 C 13.84375 84.558594 13.753906 84.621094 13.660156 84.671875 C 13.566406 84.71875 13.449219 84.742188 13.3125 84.742188 C 13.171875 84.742188 13.054688 84.71875 12.960938 84.671875 C 12.867188 84.621094 12.78125 84.558594 12.703125 84.484375 C 12.632812 84.402344 12.574219 84.308594 12.539062 84.203125 C 12.492188 84.085938 12.492188 83.992188 12.492188 83.875 C 12.492188 83.757812 12.515625 83.640625 12.539062 83.546875 C 12.574219 83.441406 12.632812 83.347656 12.703125 83.265625 C 12.773438 83.195312 12.867188 83.125 12.960938 83.078125 C 13.054688 83.03125 13.171875 83.007812 13.3125 83.007812 C 13.449219 83.007812 13.566406 83.03125 13.660156 83.078125 C 13.753906 83.125 13.847656 83.195312 13.917969 83.265625 C 13.992188 83.347656 14.046875 83.441406 14.082031 83.546875 C 14.128906 83.664062 14.128906 83.757812 14.128906 83.875 C 14.128906 83.992188 14.128906 84.109375 14.082031 84.203125 Z M 15.363281 84.90625 L 15.574219 84.90625 L 15.574219 83.921875 L 16.53125 83.921875 L 16.53125 83.734375 L 15.574219 83.734375 L 15.574219 83.03125 L 16.601562 83.03125 L 16.601562 82.84375 L 15.363281 82.84375 Z M 17.535156 84.90625 L 17.746094 84.90625 L 17.746094 83.921875 L 18.703125 83.921875 L 18.703125 83.734375 L 17.746094 83.734375 L 17.746094 83.03125 L 18.773438 83.03125 L 18.773438 82.84375 L 17.535156 82.84375 Z M 19.917969 82.84375 L 19.707031 82.84375 L 19.707031 84.882812 L 19.917969 84.882812 Z M 22.4375 84.601562 C 22.390625 84.648438 22.34375 84.671875 22.296875 84.695312 C 22.253906 84.71875 22.207031 84.742188 22.136719 84.742188 C 22.089844 84.742188 22.019531 84.765625 21.972656 84.765625 C 21.851562 84.769531 21.730469 84.746094 21.621094 84.695312 C 21.527344 84.644531 21.441406 84.582031 21.363281 84.507812 C 21.292969 84.425781 21.238281 84.332031 21.203125 84.226562 C 21.15625 84.109375 21.15625 84.015625 21.15625 83.898438 C 21.15625 83.78125 21.179688 83.664062 21.203125 83.570312 C 21.238281 83.464844 21.292969 83.371094 21.363281 83.289062 C 21.433594 83.21875 21.527344 83.148438 21.621094 83.101562 C 21.730469 83.050781 21.851562 83.027344 21.972656 83.03125 C 22.019531 83.03125 22.089844 83.03125 22.136719 83.054688 L 22.277344 83.125 C 22.320312 83.148438 22.367188 83.171875 22.390625 83.21875 C 22.4375 83.242188 22.460938 83.289062 22.484375 83.3125 L 22.671875 83.171875 C 22.578125 83.054688 22.460938 82.984375 22.34375 82.914062 C 22.226562 82.867188 22.101562 82.84375 21.972656 82.84375 C 21.808594 82.84375 21.667969 82.867188 21.550781 82.914062 C 21.425781 82.960938 21.3125 83.042969 21.226562 83.148438 C 21.132812 83.242188 21.0625 83.359375 20.992188 83.5 C 20.921875 83.640625 20.921875 83.78125 20.921875 83.921875 C 20.921875 84.0625 20.945312 84.226562 20.992188 84.34375 C 21.039062 84.460938 21.109375 84.578125 21.226562 84.695312 C 21.316406 84.789062 21.433594 84.859375 21.550781 84.929688 C 21.691406 84.976562 21.832031 85 21.972656 85 C 22.066406 85 22.136719 85 22.207031 84.976562 L 22.414062 84.90625 C 22.484375 84.882812 22.53125 84.835938 22.578125 84.789062 L 22.53125 84.53125 C 22.53125 84.507812 22.484375 84.554688 22.4375 84.601562 Z M 23.863281 83.921875 L 24.867188 83.921875 L 24.867188 83.734375 L 23.863281 83.734375 L 23.863281 83.03125 L 24.9375 83.03125 L 24.9375 82.84375 L 23.652344 82.84375 L 23.652344 84.90625 L 24.960938 84.90625 L 24.960938 84.71875 L 23.863281 84.71875 Z M 28.136719 82.84375 L 27.925781 82.84375 L 27.925781 84.882812 L 28.136719 84.882812 Z M 30.75 84.578125 L 30.726562 84.578125 L 29.511719 82.84375 L 29.253906 82.84375 L 29.253906 84.90625 L 29.464844 84.90625 L 29.464844 83.148438 L 30.679688 84.90625 L 30.9375 84.90625 L 30.9375 82.84375 L 30.75 82.84375 Z M 31.847656 83.03125 L 32.523438 83.03125 L 32.523438 84.90625 L 32.734375 84.90625 L 32.734375 83.03125 L 33.410156 83.03125 L 33.410156 82.84375 L 31.847656 82.84375 Z M 34.507812 83.921875 L 35.511719 83.921875 L 35.511719 83.734375 L 34.507812 83.734375 L 34.507812 83.03125 L 35.582031 83.03125 L 35.582031 82.84375 L 34.296875 82.84375 L 34.296875 84.90625 L 35.605469 84.90625 L 35.605469 84.71875 L 34.507812 84.71875 Z M 37.753906 83.757812 C 37.847656 83.664062 37.898438 83.539062 37.894531 83.40625 C 37.902344 83.242188 37.832031 83.085938 37.707031 82.984375 C 37.589844 82.890625 37.425781 82.84375 37.214844 82.84375 L 36.585938 82.84375 L 36.585938 84.882812 L 36.796875 84.882812 L 36.796875 83.945312 L 37.148438 83.945312 L 37.707031 84.90625 L 37.964844 84.90625 L 37.378906 83.945312 C 37.523438 83.925781 37.652344 83.859375 37.753906 83.757812 Z M 36.796875 83.757812 L 36.796875 83.054688 L 37.167969 83.054688 C 37.25 83.046875 37.328125 83.058594 37.402344 83.078125 C 37.472656 83.101562 37.519531 83.125 37.566406 83.148438 C 37.613281 83.171875 37.636719 83.21875 37.660156 83.265625 C 37.683594 83.3125 37.683594 83.359375 37.683594 83.40625 C 37.683594 83.453125 37.683594 83.5 37.660156 83.546875 C 37.519531 83.6875 37.472656 83.710938 37.402344 83.734375 C 37.332031 83.757812 37.261719 83.757812 37.167969 83.757812 Z M 40.25 84.601562 C 40.203125 84.648438 40.15625 84.671875 40.113281 84.695312 C 40.066406 84.71875 40.019531 84.742188 39.949219 84.742188 C 39.902344 84.742188 39.832031 84.765625 39.785156 84.765625 C 39.644531 84.765625 39.527344 84.742188 39.433594 84.695312 C 39.339844 84.648438 39.246094 84.578125 39.175781 84.507812 C 39.105469 84.425781 39.050781 84.332031 39.015625 84.226562 C 38.96875 84.109375 38.96875 84.015625 38.96875 83.898438 C 38.96875 83.78125 38.992188 83.664062 39.015625 83.570312 C 39.050781 83.464844 39.105469 83.371094 39.175781 83.289062 C 39.246094 83.21875 39.339844 83.148438 39.433594 83.101562 C 39.542969 83.050781 39.664062 83.027344 39.785156 83.03125 C 39.832031 83.03125 39.902344 83.03125 39.949219 83.054688 L 40.089844 83.125 C 40.132812 83.148438 40.179688 83.171875 40.203125 83.21875 C 40.25 83.242188 40.273438 83.289062 40.296875 83.3125 L 40.484375 83.171875 C 40.390625 83.054688 40.273438 82.984375 40.15625 82.914062 C 40.039062 82.867188 39.914062 82.84375 39.785156 82.84375 C 39.621094 82.84375 39.480469 82.867188 39.363281 82.914062 C 39.238281 82.960938 39.125 83.042969 39.039062 83.148438 C 38.945312 83.242188 38.875 83.359375 38.804688 83.5 C 38.734375 83.640625 38.734375 83.78125 38.734375 83.921875 C 38.734375 84.0625 38.757812 84.226562 38.804688 84.34375 C 38.851562 84.460938 38.921875 84.578125 39.039062 84.695312 C 39.132812 84.789062 39.246094 84.859375 39.363281 84.929688 C 39.503906 84.976562 39.644531 85 39.785156 85 C 39.878906 85 39.949219 85 40.019531 84.976562 L 40.226562 84.90625 C 40.296875 84.882812 40.34375 84.835938 40.390625 84.789062 L 40.34375 84.53125 C 40.34375 84.507812 40.296875 84.554688 40.25 84.601562 Z M 43.167969 83.101562 C 43.078125 83.007812 42.960938 82.9375 42.84375 82.867188 C 42.726562 82.796875 42.5625 82.796875 42.421875 82.796875 C 42.28125 82.796875 42.117188 82.820312 42.003906 82.867188 C 41.875 82.914062 41.761719 82.996094 41.675781 83.101562 C 41.578125 83.203125 41.5 83.324219 41.441406 83.453125 C 41.371094 83.59375 41.371094 83.734375 41.371094 83.875 C 41.371094 84.015625 41.394531 84.179688 41.441406 84.296875 C 41.488281 84.414062 41.558594 84.53125 41.675781 84.648438 C 41.769531 84.742188 41.886719 84.8125 42.003906 84.882812 C 42.140625 84.929688 42.28125 84.953125 42.421875 84.953125 C 42.5625 84.953125 42.726562 84.929688 42.84375 84.882812 C 42.972656 84.839844 43.085938 84.757812 43.167969 84.648438 C 43.261719 84.554688 43.332031 84.4375 43.402344 84.296875 C 43.472656 84.15625 43.472656 84.015625 43.472656 83.875 C 43.472656 83.734375 43.449219 83.570312 43.402344 83.453125 C 43.347656 83.320312 43.269531 83.203125 43.167969 83.101562 Z M 43.191406 84.203125 C 43.15625 84.308594 43.101562 84.402344 43.03125 84.484375 C 42.953125 84.558594 42.867188 84.621094 42.773438 84.671875 C 42.679688 84.71875 42.5625 84.742188 42.421875 84.742188 C 42.28125 84.742188 42.164062 84.71875 42.074219 84.671875 C 41.976562 84.621094 41.890625 84.558594 41.816406 84.484375 C 41.742188 84.402344 41.6875 84.308594 41.652344 84.203125 C 41.605469 84.085938 41.605469 83.992188 41.605469 83.875 C 41.605469 83.757812 41.628906 83.640625 41.652344 83.546875 C 41.6875 83.441406 41.742188 83.347656 41.816406 83.265625 C 41.886719 83.195312 41.980469 83.125 42.074219 83.078125 C 42.164062 83.03125 42.28125 83.007812 42.421875 83.007812 C 42.5625 83.007812 42.679688 83.03125 42.773438 83.078125 C 42.867188 83.125 42.960938 83.195312 43.03125 83.265625 C 43.101562 83.347656 43.15625 83.441406 43.191406 83.546875 C 43.238281 83.664062 43.238281 83.757812 43.238281 83.875 C 43.238281 83.992188 43.238281 84.109375 43.191406 84.203125 Z M 45.457031 84.507812 L 44.78125 82.84375 L 44.453125 82.84375 L 44.453125 84.90625 L 44.664062 84.90625 L 44.664062 83.125 L 45.410156 84.90625 L 45.527344 84.90625 L 46.25 83.125 L 46.273438 83.125 L 46.273438 84.90625 L 46.484375 84.90625 L 46.484375 82.84375 L 46.15625 82.84375 Z M 48.609375 84.507812 L 47.910156 82.84375 L 47.605469 82.84375 L 47.605469 84.90625 L 47.816406 84.90625 L 47.816406 83.125 L 48.5625 84.90625 L 48.65625 84.90625 L 49.402344 83.125 L 49.402344 84.90625 L 49.613281 84.90625 L 49.613281 82.84375 L 49.308594 82.84375 Z M 51.996094 84.109375 C 51.996094 84.203125 51.996094 84.296875 51.972656 84.367188 C 51.949219 84.4375 51.925781 84.507812 51.902344 84.554688 C 51.738281 84.695312 51.714844 84.71875 51.667969 84.742188 C 51.621094 84.765625 51.597656 84.765625 51.550781 84.765625 L 51.363281 84.765625 C 51.316406 84.765625 51.292969 84.742188 51.246094 84.742188 C 51.199219 84.71875 51.175781 84.695312 51.128906 84.671875 C 51.082031 84.648438 51.058594 84.601562 51.015625 84.554688 C 50.96875 84.507812 50.96875 84.4375 50.945312 84.367188 C 50.921875 84.296875 50.921875 84.203125 50.921875 84.109375 L 50.921875 82.84375 L 50.710938 82.84375 L 50.710938 84.132812 C 50.710938 84.226562 50.710938 84.296875 50.734375 84.414062 C 50.757812 84.507812 50.78125 84.601562 50.851562 84.671875 C 50.898438 84.742188 50.992188 84.8125 51.082031 84.882812 C 51.175781 84.929688 51.292969 84.953125 51.457031 84.953125 C 51.621094 84.953125 51.738281 84.929688 51.832031 84.882812 C 51.925781 84.832031 52.003906 84.761719 52.0625 84.671875 C 52.117188 84.59375 52.15625 84.503906 52.179688 84.414062 C 52.203125 84.320312 52.203125 84.226562 52.203125 84.132812 L 52.203125 82.84375 L 51.996094 82.84375 Z M 54.773438 84.578125 L 53.558594 82.84375 L 53.300781 82.84375 L 53.300781 84.90625 L 53.511719 84.90625 L 53.511719 83.148438 L 54.726562 84.90625 L 54.984375 84.90625 L 54.984375 82.84375 L 54.773438 82.84375 Z M 56.734375 82.84375 L 55.847656 84.882812 L 56.078125 84.882812 L 56.3125 84.34375 L 57.363281 84.34375 L 57.597656 84.882812 L 57.832031 84.882812 L 56.945312 82.84375 Z M 56.382812 84.179688 L 56.828125 83.101562 L 57.269531 84.179688 Z M 58.882812 82.84375 L 58.671875 82.84375 L 58.671875 84.90625 L 59.839844 84.90625 L 59.839844 84.71875 L 58.882812 84.71875 Z M 64.039062 83.101562 C 63.945312 83.007812 63.832031 82.960938 63.691406 82.914062 C 63.570312 82.867188 63.445312 82.84375 63.316406 82.84375 L 62.640625 82.84375 L 62.640625 84.882812 L 63.316406 84.882812 C 63.433594 84.882812 63.574219 84.859375 63.691406 84.8125 C 63.808594 84.765625 63.921875 84.695312 64.039062 84.625 C 64.15625 84.554688 64.226562 84.4375 64.296875 84.296875 C 64.367188 84.15625 64.390625 84.015625 64.390625 83.851562 C 64.390625 83.6875 64.367188 83.523438 64.296875 83.40625 C 64.226562 83.289062 64.132812 83.195312 64.039062 83.101562 Z M 64.109375 84.179688 C 64.0625 84.273438 64.015625 84.367188 63.945312 84.4375 C 63.878906 84.507812 63.785156 84.578125 63.667969 84.625 C 63.550781 84.671875 63.410156 84.695312 63.269531 84.695312 L 62.875 84.695312 L 62.875 83.03125 L 63.269531 83.03125 C 63.433594 83.03125 63.550781 83.054688 63.667969 83.101562 C 63.785156 83.148438 63.878906 83.21875 63.945312 83.289062 C 64.023438 83.359375 64.078125 83.449219 64.109375 83.546875 C 64.15625 83.640625 64.15625 83.757812 64.15625 83.851562 C 64.15625 83.992188 64.132812 84.085938 64.109375 84.179688 Z M 65.582031 83.921875 L 66.5625 83.921875 L 66.5625 83.734375 L 65.582031 83.734375 L 65.582031 83.03125 L 66.632812 83.03125 L 66.632812 82.84375 L 65.371094 82.84375 L 65.371094 84.90625 L 66.679688 84.90625 L 66.679688 84.71875 L 65.582031 84.71875 Z M 69.386719 83.03125 L 70.085938 83.03125 L 70.085938 84.90625 L 70.273438 84.90625 L 70.273438 83.03125 L 70.972656 83.03125 L 70.972656 82.84375 L 69.386719 82.84375 Z M 73.542969 83.101562 C 73.449219 83.007812 73.332031 82.9375 73.214844 82.867188 C 73.097656 82.796875 72.933594 82.796875 72.796875 82.796875 C 72.65625 82.796875 72.492188 82.820312 72.375 82.867188 C 72.246094 82.914062 72.132812 82.996094 72.046875 83.101562 C 71.953125 83.203125 71.871094 83.324219 71.816406 83.453125 C 71.746094 83.59375 71.746094 83.734375 71.746094 83.875 C 71.746094 84.015625 71.769531 84.179688 71.816406 84.296875 C 71.859375 84.414062 71.929688 84.53125 72.046875 84.648438 C 72.140625 84.742188 72.257812 84.8125 72.375 84.882812 C 72.515625 84.929688 72.65625 84.953125 72.796875 84.953125 C 72.957031 84.953125 73.097656 84.929688 73.214844 84.882812 C 73.347656 84.839844 73.460938 84.757812 73.542969 84.648438 C 73.636719 84.554688 73.707031 84.4375 73.777344 84.296875 C 73.84375 84.15625 73.84375 84.015625 73.84375 83.875 C 73.84375 83.734375 73.820312 83.570312 73.777344 83.453125 C 73.71875 83.320312 73.640625 83.203125 73.542969 83.101562 Z M 73.566406 84.203125 C 73.53125 84.308594 73.476562 84.402344 73.402344 84.484375 C 73.328125 84.558594 73.238281 84.621094 73.144531 84.671875 C 73.050781 84.71875 72.933594 84.742188 72.796875 84.742188 C 72.65625 84.742188 72.539062 84.71875 72.445312 84.671875 C 72.351562 84.621094 72.261719 84.558594 72.1875 84.484375 C 72.113281 84.402344 72.058594 84.308594 72.023438 84.203125 C 71.976562 84.085938 71.976562 83.992188 71.976562 83.875 C 71.976562 83.757812 72 83.640625 72.023438 83.546875 C 72.046875 83.453125 72.117188 83.335938 72.1875 83.265625 C 72.257812 83.195312 72.351562 83.125 72.445312 83.078125 C 72.539062 83.03125 72.65625 83.007812 72.796875 83.007812 C 72.933594 83.007812 73.050781 83.03125 73.144531 83.078125 C 73.238281 83.125 73.332031 83.195312 73.402344 83.265625 C 73.476562 83.347656 73.53125 83.441406 73.566406 83.546875 C 73.613281 83.664062 73.613281 83.757812 73.613281 83.875 C 73.613281 83.992188 73.613281 84.109375 73.566406 84.203125 Z M 76.085938 84.109375 C 76.085938 84.203125 76.085938 84.296875 76.0625 84.367188 C 76.039062 84.4375 76.015625 84.507812 75.992188 84.554688 C 75.828125 84.695312 75.804688 84.71875 75.761719 84.742188 C 75.714844 84.765625 75.691406 84.765625 75.644531 84.765625 L 75.457031 84.765625 C 75.410156 84.765625 75.386719 84.742188 75.339844 84.742188 C 75.292969 84.71875 75.269531 84.695312 75.222656 84.671875 C 75.175781 84.648438 75.152344 84.601562 75.105469 84.554688 C 75.058594 84.507812 75.058594 84.4375 75.035156 84.367188 C 75.011719 84.296875 75.011719 84.203125 75.011719 84.109375 L 75.011719 82.84375 L 74.800781 82.84375 L 74.800781 84.132812 C 74.800781 84.226562 74.800781 84.296875 74.824219 84.414062 C 74.847656 84.507812 74.871094 84.601562 74.941406 84.671875 C 74.988281 84.742188 75.082031 84.8125 75.175781 84.882812 C 75.269531 84.929688 75.386719 84.953125 75.550781 84.953125 C 75.714844 84.953125 75.828125 84.929688 75.921875 84.882812 C 76.015625 84.832031 76.097656 84.761719 76.15625 84.671875 C 76.210938 84.59375 76.25 84.503906 76.273438 84.414062 C 76.296875 84.320312 76.296875 84.226562 76.296875 84.132812 L 76.296875 82.84375 L 76.085938 82.84375 Z M 78.5625 83.757812 C 78.65625 83.664062 78.707031 83.539062 78.703125 83.40625 C 78.710938 83.242188 78.640625 83.085938 78.515625 82.984375 C 78.398438 82.890625 78.234375 82.84375 78.023438 82.84375 L 77.394531 82.84375 L 77.394531 84.882812 L 77.605469 84.882812 L 77.605469 83.945312 L 77.953125 83.945312 L 78.515625 84.90625 L 78.769531 84.90625 L 78.1875 83.945312 C 78.328125 83.925781 78.460938 83.859375 78.5625 83.757812 Z M 77.605469 83.757812 L 77.605469 83.054688 L 77.976562 83.054688 C 78.070312 83.054688 78.140625 83.054688 78.210938 83.078125 C 78.28125 83.101562 78.328125 83.125 78.375 83.148438 C 78.421875 83.171875 78.445312 83.21875 78.46875 83.265625 C 78.492188 83.3125 78.492188 83.359375 78.492188 83.40625 C 78.492188 83.453125 78.492188 83.5 78.46875 83.546875 C 78.328125 83.6875 78.28125 83.710938 78.210938 83.734375 C 78.140625 83.757812 78.070312 83.757812 77.976562 83.757812 Z M 79.890625 82.84375 L 79.683594 82.84375 L 79.683594 84.882812 L 79.890625 84.882812 Z M 81.921875 83.898438 C 81.84375 83.851562 81.757812 83.820312 81.667969 83.804688 C 81.574219 83.789062 81.488281 83.753906 81.410156 83.710938 C 81.175781 83.546875 81.152344 83.476562 81.152344 83.382812 C 81.152344 83.3125 81.175781 83.265625 81.199219 83.21875 C 81.222656 83.171875 81.246094 83.125 81.292969 83.101562 L 81.433594 83.03125 C 81.480469 83.007812 81.527344 83.007812 81.597656 83.007812 C 81.757812 83.007812 81.898438 83.078125 81.992188 83.21875 L 82.179688 83.078125 C 82.109375 82.984375 82.015625 82.914062 81.921875 82.890625 C 81.828125 82.867188 81.714844 82.84375 81.621094 82.84375 C 81.527344 82.84375 81.457031 82.84375 81.386719 82.867188 C 81.3125 82.894531 81.242188 82.9375 81.175781 82.984375 C 80.988281 83.242188 80.988281 83.335938 80.988281 83.429688 C 80.988281 83.523438 81.011719 83.59375 81.035156 83.664062 C 81.058594 83.734375 81.105469 83.78125 81.152344 83.828125 C 81.199219 83.875 81.246094 83.898438 81.316406 83.921875 C 81.386719 83.945312 81.433594 83.96875 81.503906 83.992188 C 81.574219 84.015625 81.644531 84.039062 81.691406 84.0625 C 81.757812 84.085938 81.804688 84.109375 81.851562 84.132812 C 81.992188 84.296875 82.015625 84.367188 82.015625 84.4375 C 82.015625 84.507812 81.992188 84.554688 81.96875 84.601562 L 81.738281 84.789062 C 81.691406 84.8125 81.644531 84.8125 81.574219 84.8125 C 81.476562 84.816406 81.378906 84.792969 81.292969 84.742188 C 81.21875 84.691406 81.15625 84.628906 81.105469 84.554688 L 80.917969 84.695312 C 80.984375 84.804688 81.082031 84.886719 81.199219 84.929688 C 81.316406 84.976562 81.433594 85 81.550781 85 C 81.621094 85 81.714844 84.976562 81.78125 84.953125 C 81.851562 84.929688 81.921875 84.882812 81.992188 84.835938 C 82.0625 84.789062 82.109375 84.71875 82.15625 84.648438 C 82.203125 84.570312 82.226562 84.480469 82.226562 84.390625 C 82.230469 84.292969 82.207031 84.195312 82.15625 84.109375 C 82.0625 83.992188 81.992188 83.945312 81.921875 83.898438 Z M 84.210938 84.507812 L 83.511719 82.84375 L 83.183594 82.84375 L 83.183594 84.90625 L 83.394531 84.90625 L 83.394531 83.125 L 83.417969 83.125 L 84.140625 84.90625 L 84.257812 84.90625 L 84.980469 83.125 L 85.003906 83.125 L 85.003906 84.90625 L 85.214844 84.90625 L 85.214844 82.84375 L 84.886719 82.84375 Z M 86.546875 83.921875 L 87.527344 83.921875 L 87.527344 83.734375 L 86.546875 83.734375 L 86.546875 83.03125 L 87.597656 83.03125 L 87.597656 82.84375 L 86.335938 82.84375 L 86.335938 84.90625 L 87.644531 84.90625 L 87.644531 84.71875 L 86.546875 84.71875 Z M 58.085938 70.53125 L 56.078125 76.582031 L 56.851562 76.582031 L 57.363281 74.988281 L 59.488281 74.988281 L 60 76.582031 L 60.796875 76.582031 L 58.789062 70.53125 Z M 57.597656 74.238281 L 58.4375 71.5625 L 59.253906 74.238281 Z M 1.21875 70.53125 L 0.00390625 70.53125 L 0.00390625 76.582031 L 0.75 76.582031 L 0.75 74.050781 L 1.359375 74.050781 C 2.199219 74.050781 3.085938 73.582031 3.085938 72.292969 C 3.109375 71.140625 2.457031 70.53125 1.21875 70.53125 Z M 1.171875 73.324219 L 0.773438 73.324219 L 0.773438 71.257812 L 1.101562 71.257812 C 1.589844 71.257812 2.316406 71.257812 2.316406 72.292969 C 2.316406 73.019531 1.988281 73.324219 1.171875 73.324219 Z M 9.390625 70.53125 L 7.382812 76.582031 L 8.152344 76.582031 L 8.664062 74.988281 L 10.789062 74.988281 L 11.304688 76.582031 L 12.097656 76.582031 L 10.089844 70.53125 Z M 8.898438 74.238281 L 9.738281 71.5625 L 10.554688 74.238281 Z M 17.488281 73.792969 L 19.332031 73.792969 L 19.332031 73.066406 L 17.488281 73.066406 L 17.488281 71.234375 L 19.425781 71.234375 L 19.425781 70.53125 L 16.71875 70.53125 L 16.71875 76.558594 L 19.519531 76.558594 L 19.519531 75.855469 L 17.488281 75.855469 Z M 25.824219 72.996094 C 25.332031 72.644531 25.078125 72.433594 25.078125 71.914062 C 25.078125 71.1875 25.847656 71.1875 25.894531 71.1875 C 26.3125 71.1875 26.546875 71.328125 26.757812 71.445312 L 26.921875 71.539062 L 26.96875 70.671875 L 26.851562 70.625 C 26.6875 70.578125 26.382812 70.4375 25.941406 70.4375 C 25.195312 70.4375 24.304688 70.835938 24.304688 71.960938 C 24.304688 72.667969 24.5625 73.066406 25.402344 73.628906 C 26.128906 74.121094 26.453125 74.355469 26.453125 74.941406 C 26.453125 74.988281 26.453125 75.878906 25.542969 75.878906 C 25.425781 75.878906 24.984375 75.855469 24.609375 75.527344 L 24.421875 75.363281 L 24.375 76.277344 L 24.445312 76.324219 C 24.726562 76.511719 25.171875 76.605469 25.613281 76.605469 C 26.59375 76.605469 27.269531 75.902344 27.269531 74.871094 C 27.226562 74.050781 26.898438 73.769531 25.824219 72.996094 Z M 32.945312 70.53125 L 32.199219 70.53125 L 32.199219 76.582031 L 32.945312 76.582031 Z M 45.175781 70.53125 L 44.3125 70.53125 L 44.3125 76.582031 L 45.316406 76.582031 C 47.066406 76.582031 48.117188 75.433594 48.117188 73.488281 C 48.117188 71.492188 47.160156 70.53125 45.175781 70.53125 Z M 45.457031 75.855469 L 45.039062 75.855469 L 45.039062 71.257812 L 45.363281 71.257812 C 47.089844 71.257812 47.324219 72.480469 47.324219 73.558594 C 47.324219 74.988281 46.625 75.855469 45.457031 75.855469 Z M 66.164062 70.53125 L 65.417969 70.53125 L 65.417969 76.582031 L 66.164062 76.582031 Z M 73.519531 70.53125 L 72.796875 70.53125 L 70.789062 76.582031 L 71.558594 76.582031 L 72.070312 74.988281 L 74.195312 74.988281 L 74.710938 76.582031 L 75.503906 76.582031 Z M 72.304688 74.238281 L 73.144531 71.5625 L 73.960938 74.238281 Z M 83.628906 76.394531 L 83.605469 75.738281 L 83.582031 75.550781 L 83.417969 75.621094 C 83.113281 75.761719 82.902344 75.855469 82.507812 75.855469 C 82.320312 75.855469 80.734375 75.785156 80.734375 73.488281 C 80.734375 71.257812 82.203125 71.140625 82.507812 71.140625 C 82.902344 71.140625 83.300781 71.304688 83.417969 71.398438 L 83.605469 71.5625 L 83.652344 70.648438 L 83.582031 70.601562 C 83.253906 70.464844 82.90625 70.394531 82.554688 70.390625 C 80.640625 70.390625 79.960938 71.960938 79.960938 73.441406 C 79.960938 74.871094 80.640625 76.558594 82.53125 76.558594 C 83.042969 76.558594 83.417969 76.417969 83.558594 76.371094 Z M 91.097656 71.1875 C 91.496094 71.1875 91.890625 71.351562 92.007812 71.445312 L 92.195312 71.609375 L 92.242188 70.695312 L 92.171875 70.648438 C 91.847656 70.511719 91.496094 70.441406 91.144531 70.4375 C 89.230469 70.4375 88.554688 72.007812 88.554688 73.488281 C 88.554688 74.917969 89.230469 76.605469 91.121094 76.605469 C 91.636719 76.605469 92.007812 76.464844 92.148438 76.417969 L 92.21875 76.394531 L 92.195312 75.738281 L 92.171875 75.550781 L 92.007812 75.621094 C 91.703125 75.761719 91.496094 75.855469 91.097656 75.855469 C 90.910156 75.855469 89.324219 75.785156 89.324219 73.488281 C 89.324219 71.304688 90.792969 71.1875 91.097656 71.1875 Z M 98.054688 70.53125 L 97.308594 70.53125 L 97.308594 76.582031 L 98.054688 76.582031 Z M 106.203125 70.53125 L 106.203125 74.308594 C 106.203125 75.128906 106.0625 75.902344 105.128906 75.902344 C 104.359375 75.902344 104.054688 75.433594 104.054688 74.308594 L 104.054688 70.53125 L 103.308594 70.53125 L 103.308594 74.332031 C 103.308594 75.878906 103.914062 76.652344 105.152344 76.652344 C 106.34375 76.652344 106.996094 75.855469 106.996094 74.332031 L 106.996094 70.53125 Z M 106.203125 70.53125 "/>
<path style=" stroke:none;fill-rule:nonzero;fill:rgb(95.294118%,84.705883%,39.215687%);fill-opacity:1;" d="M 51.621094 72.878906 L 51.480469 72.761719 C 53 70.859375 52.53125 68.46875 54.046875 68.09375 C 54.609375 67.953125 55.121094 68.351562 55.261719 68.914062 C 55.613281 70.34375 53.136719 71 51.621094 72.878906 Z M 51.621094 72.878906 "/>
</g>
</svg>
