<?xml version="1.0" encoding="UTF-8"?>
<svg xmlns="http://www.w3.org/2000/svg" xmlns:xlink="http://www.w3.org/1999/xlink" width="108px" height="85px" viewBox="0 0 107 85" version="1.1">
<g id="surface1">
<path style=" stroke:none;fill-rule:nonzero;fill:rgb(100%,100%,100%);fill-opacity:1;" d="M 77.488281 4.871094 L 72.890625 0.0742188 C 65.207031 7.496094 57.015625 13.652344 49.050781 18.050781 C 44.6875 13.347656 39.480469 10.957031 33.550781 10.957031 L 33.527344 10.957031 C 27.152344 11.003906 21.597656 13.742188 16.996094 19.082031 C 12.492188 24.324219 10.203125 30.644531 10.203125 37.878906 C 10.203125 45.085938 12.492188 51.429688 16.996094 56.71875 C 21.574219 62.082031 27.128906 64.820312 33.503906 64.820312 C 37.707031 64.820312 41.675781 63.554688 45.246094 61.074219 C 48.773438 58.640625 51.597656 55.292969 53.628906 51.171875 C 55.636719 47.074219 56.664062 42.605469 56.664062 37.902344 C 56.6875 32.585938 55.472656 27.765625 53.019531 23.457031 C 61.261719 18.800781 69.667969 12.433594 77.488281 4.871094 Z M 33.550781 17.441406 C 37.214844 17.464844 40.390625 18.660156 43.121094 21.023438 C 41.929688 21.5625 40.742188 22.054688 39.550781 22.5 C 31.613281 25.496094 25.074219 25.984375 21.035156 23.996094 C 21.222656 23.738281 21.433594 23.480469 21.644531 23.246094 C 24.933594 19.316406 28.832031 17.441406 33.550781 17.441406 Z M 50.21875 37.902344 C 50.265625 43.777344 48.65625 48.574219 45.316406 52.554688 C 42.070312 56.4375 38.195312 58.335938 33.503906 58.335938 L 33.480469 58.335938 C 28.808594 58.359375 24.933594 56.484375 21.644531 52.601562 C 18.28125 48.597656 16.648438 43.777344 16.648438 37.902344 C 16.648438 34.972656 17.042969 32.304688 17.882812 29.871094 C 20.453125 31.183594 23.511719 31.839844 27.011719 31.839844 C 31.378906 31.839844 36.398438 30.808594 41.90625 28.726562 C 43.730469 28.046875 45.574219 27.25 47.441406 26.359375 C 49.285156 29.660156 50.21875 33.523438 50.21875 37.902344 Z M 50.21875 37.902344 "/>
<path style=" stroke:none;fill-rule:nonzero;fill:rgb(100%,100%,100%);fill-opacity:1;" d="M 64.90625 34.765625 L 59.089844 34.765625 L 59.089844 60.230469 L 64.90625 60.230469 Z M 67.730469 34.671875 L 67.730469 40.523438 L 74.453125 40.523438 L 74.453125 60.136719 L 80.269531 60.136719 L 80.269531 40.523438 L 86.945312 40.523438 L 86.945312 34.671875 Z M 67.730469 34.671875 "/>
<path style=" stroke:none;fill-rule:nonzero;fill:rgb(95.294118%,84.705883%,39.215687%);fill-opacity:1;" d="M 27.433594 34.390625 L 25.425781 33.523438 L 25.425781 33.242188 L 26.570312 29.800781 C 28.132812 28.1875 29.089844 26.757812 29.441406 25.496094 C 29.160156 25.121094 28.785156 24.933594 28.296875 24.910156 C 27.503906 24.910156 26.289062 26.335938 24.726562 29.214844 C 23.160156 33.195312 22.296875 35.207031 22.15625 35.230469 L 22.015625 35.230469 C 20.03125 29.683594 18.746094 26.898438 18.140625 26.898438 L 17.558594 26.898438 C 17.183594 27.015625 16.972656 27.460938 16.972656 28.1875 L 16.972656 28.46875 C 16.972656 29.144531 17.066406 29.683594 17.253906 30.035156 C 18.675781 32.421875 19.402344 34.460938 19.402344 36.214844 L 19.402344 36.355469 C 19.378906 36.566406 18.910156 36.847656 17.976562 37.222656 C 14.054688 37.363281 12.117188 37.761719 12.117188 38.367188 C 12.117188 39.492188 12.839844 40.148438 14.265625 40.382812 L 14.265625 40.664062 C 11.488281 42.769531 10.109375 44.011719 10.109375 44.382812 C 10.109375 44.851562 10.4375 45.34375 11.113281 45.8125 L 11.535156 45.8125 C 16.179688 41.503906 19.003906 39.351562 19.984375 39.351562 L 20.265625 39.351562 L 20.40625 39.492188 L 18.980469 46.515625 C 18.980469 46.984375 19.167969 47.285156 19.566406 47.378906 C 20.195312 47.378906 20.917969 46.1875 21.710938 43.800781 L 22.132812 43.800781 C 23.976562 45.15625 25.167969 45.882812 25.707031 45.953125 L 25.707031 45.8125 L 25.984375 45.8125 L 25.984375 45.226562 C 24.257812 42.347656 23.417969 40.5 23.417969 39.632812 L 23.417969 38.90625 C 24.28125 37.082031 26.6875 36.191406 30.585938 36.191406 L 32.453125 36.613281 L 33.457031 35.605469 L 33.457031 35.324219 C 33.433594 34.925781 31.425781 34.578125 27.433594 34.390625 Z M 27.433594 34.390625 "/>
<path style=" stroke:none;fill-rule:nonzero;fill:rgb(100%,100%,100%);fill-opacity:1;" d="M 14.054688 83.03125 C 13.960938 82.9375 13.84375 82.867188 13.726562 82.796875 C 13.613281 82.726562 13.449219 82.726562 13.308594 82.726562 C 13.167969 82.726562 13.003906 82.75 12.886719 82.796875 C 12.769531 82.84375 12.652344 82.914062 12.5625 83.03125 C 12.46875 83.125 12.398438 83.242188 12.328125 83.382812 C 12.257812 83.519531 12.257812 83.660156 12.257812 83.800781 C 12.257812 83.941406 12.28125 84.105469 12.328125 84.222656 C 12.375 84.339844 12.445312 84.457031 12.5625 84.574219 C 12.652344 84.667969 12.769531 84.738281 12.886719 84.808594 C 13.027344 84.855469 13.167969 84.878906 13.308594 84.878906 C 13.449219 84.878906 13.613281 84.855469 13.726562 84.808594 C 13.867188 84.761719 13.960938 84.691406 14.054688 84.574219 C 14.148438 84.480469 14.21875 84.363281 14.289062 84.222656 C 14.359375 84.082031 14.359375 83.941406 14.359375 83.800781 C 14.359375 83.660156 14.335938 83.496094 14.289062 83.382812 C 14.242188 83.265625 14.171875 83.125 14.054688 83.03125 Z M 14.078125 84.128906 C 14.03125 84.246094 13.984375 84.339844 13.914062 84.410156 C 13.84375 84.480469 13.75 84.550781 13.65625 84.597656 C 13.566406 84.644531 13.449219 84.667969 13.308594 84.667969 C 13.167969 84.667969 13.050781 84.644531 12.957031 84.597656 C 12.863281 84.550781 12.769531 84.480469 12.699219 84.410156 C 12.628906 84.339844 12.585938 84.246094 12.539062 84.128906 C 12.492188 84.011719 12.492188 83.917969 12.492188 83.800781 C 12.492188 83.683594 12.515625 83.566406 12.539062 83.472656 C 12.585938 83.359375 12.628906 83.265625 12.699219 83.195312 C 12.769531 83.125 12.863281 83.054688 12.957031 83.007812 C 13.050781 82.960938 13.167969 82.9375 13.308594 82.9375 C 13.449219 82.9375 13.566406 82.960938 13.65625 83.007812 C 13.75 83.054688 13.84375 83.125 13.914062 83.195312 C 13.984375 83.265625 14.03125 83.359375 14.078125 83.472656 C 14.125 83.589844 14.125 83.683594 14.125 83.800781 C 14.125 83.917969 14.125 84.035156 14.078125 84.128906 Z M 15.363281 84.832031 L 15.574219 84.832031 L 15.574219 83.847656 L 16.53125 83.847656 L 16.53125 83.660156 L 15.574219 83.660156 L 15.574219 82.960938 L 16.601562 82.960938 L 16.601562 82.773438 L 15.363281 82.773438 Z M 17.535156 84.832031 L 17.742188 84.832031 L 17.742188 83.847656 L 18.699219 83.847656 L 18.699219 83.660156 L 17.742188 83.660156 L 17.742188 82.960938 L 18.769531 82.960938 L 18.769531 82.773438 L 17.535156 82.773438 Z M 19.914062 82.773438 L 19.703125 82.773438 L 19.703125 84.808594 L 19.914062 84.808594 Z M 22.4375 84.527344 C 22.390625 84.574219 22.34375 84.597656 22.296875 84.621094 C 22.25 84.644531 22.203125 84.667969 22.132812 84.667969 C 22.085938 84.667969 22.015625 84.691406 21.96875 84.691406 C 21.828125 84.691406 21.710938 84.667969 21.621094 84.621094 C 21.527344 84.574219 21.433594 84.503906 21.363281 84.433594 C 21.292969 84.363281 21.246094 84.269531 21.199219 84.152344 C 21.152344 84.035156 21.152344 83.941406 21.152344 83.824219 C 21.152344 83.707031 21.175781 83.589844 21.199219 83.496094 C 21.246094 83.382812 21.292969 83.289062 21.363281 83.21875 C 21.433594 83.148438 21.527344 83.078125 21.621094 83.03125 C 21.710938 82.984375 21.828125 82.960938 21.96875 82.960938 C 22.015625 82.960938 22.085938 82.960938 22.132812 82.984375 L 22.273438 83.054688 C 22.320312 83.078125 22.367188 83.101562 22.390625 83.148438 C 22.4375 83.171875 22.460938 83.21875 22.484375 83.242188 L 22.671875 83.101562 C 22.578125 82.984375 22.460938 82.914062 22.34375 82.84375 C 22.226562 82.796875 22.085938 82.773438 21.96875 82.773438 C 21.804688 82.773438 21.667969 82.796875 21.550781 82.84375 C 21.433594 82.890625 21.316406 82.960938 21.222656 83.078125 C 21.128906 83.171875 21.058594 83.289062 20.988281 83.429688 C 20.917969 83.566406 20.917969 83.707031 20.917969 83.847656 C 20.917969 83.988281 20.941406 84.152344 20.988281 84.269531 C 21.035156 84.386719 21.105469 84.503906 21.222656 84.621094 C 21.316406 84.714844 21.433594 84.785156 21.550781 84.855469 C 21.691406 84.902344 21.828125 84.925781 21.96875 84.925781 C 22.0625 84.925781 22.132812 84.925781 22.203125 84.902344 L 22.414062 84.832031 C 22.484375 84.808594 22.53125 84.761719 22.578125 84.714844 C 22.625 84.667969 22.671875 84.621094 22.695312 84.574219 L 22.53125 84.457031 C 22.53125 84.433594 22.484375 84.480469 22.4375 84.527344 Z M 23.859375 83.847656 L 24.863281 83.847656 L 24.863281 83.660156 L 23.859375 83.660156 L 23.859375 82.960938 L 24.933594 82.960938 L 24.933594 82.773438 L 23.652344 82.773438 L 23.652344 84.832031 L 24.957031 84.832031 L 24.957031 84.644531 L 23.859375 84.644531 Z M 28.132812 82.773438 L 27.921875 82.773438 L 27.921875 84.808594 L 28.132812 84.808594 Z M 30.75 84.503906 L 30.726562 84.503906 L 29.511719 82.773438 L 29.253906 82.773438 L 29.253906 84.832031 L 29.464844 84.832031 L 29.464844 83.078125 L 30.679688 84.832031 L 30.933594 84.832031 L 30.933594 82.773438 L 30.75 82.773438 Z M 31.84375 82.960938 L 32.523438 82.960938 L 32.523438 84.832031 L 32.734375 84.832031 L 32.734375 82.960938 L 33.410156 82.960938 L 33.410156 82.773438 L 31.84375 82.773438 Z M 34.507812 83.847656 L 35.511719 83.847656 L 35.511719 83.660156 L 34.507812 83.660156 L 34.507812 82.960938 L 35.582031 82.960938 L 35.582031 82.773438 L 34.296875 82.773438 L 34.296875 84.832031 L 35.605469 84.832031 L 35.605469 84.644531 L 34.507812 84.644531 Z M 37.753906 83.683594 C 37.847656 83.589844 37.890625 83.472656 37.890625 83.335938 C 37.890625 83.148438 37.824219 83.007812 37.707031 82.914062 C 37.589844 82.820312 37.425781 82.773438 37.214844 82.773438 L 36.585938 82.773438 L 36.585938 84.808594 L 36.796875 84.808594 L 36.796875 83.871094 L 37.144531 83.871094 L 37.707031 84.832031 L 37.960938 84.832031 L 37.378906 83.871094 C 37.542969 83.847656 37.660156 83.777344 37.753906 83.683594 Z M 36.796875 83.683594 L 36.796875 82.984375 L 37.167969 82.984375 C 37.261719 82.984375 37.332031 82.984375 37.402344 83.007812 C 37.472656 83.03125 37.519531 83.054688 37.566406 83.078125 C 37.613281 83.101562 37.636719 83.148438 37.660156 83.195312 C 37.683594 83.242188 37.683594 83.289062 37.683594 83.335938 C 37.683594 83.382812 37.683594 83.429688 37.660156 83.472656 C 37.636719 83.519531 37.613281 83.542969 37.566406 83.589844 C 37.519531 83.613281 37.472656 83.636719 37.402344 83.660156 C 37.332031 83.683594 37.261719 83.683594 37.167969 83.683594 Z M 40.25 84.527344 C 40.203125 84.574219 40.15625 84.597656 40.109375 84.621094 C 40.0625 84.644531 40.015625 84.667969 39.945312 84.667969 C 39.898438 84.667969 39.832031 84.691406 39.785156 84.691406 C 39.644531 84.691406 39.527344 84.667969 39.433594 84.621094 C 39.339844 84.574219 39.246094 84.503906 39.175781 84.433594 C 39.105469 84.363281 39.058594 84.269531 39.011719 84.152344 C 38.964844 84.035156 38.964844 83.941406 38.964844 83.824219 C 38.964844 83.707031 38.988281 83.589844 39.011719 83.496094 C 39.058594 83.382812 39.105469 83.289062 39.175781 83.21875 C 39.246094 83.148438 39.339844 83.078125 39.433594 83.03125 C 39.527344 82.984375 39.644531 82.960938 39.785156 82.960938 C 39.832031 82.960938 39.898438 82.960938 39.945312 82.984375 L 40.085938 83.054688 C 40.132812 83.078125 40.179688 83.101562 40.203125 83.148438 C 40.25 83.171875 40.273438 83.21875 40.296875 83.242188 L 40.484375 83.101562 C 40.390625 82.984375 40.273438 82.914062 40.15625 82.84375 C 40.039062 82.796875 39.898438 82.773438 39.785156 82.773438 C 39.621094 82.773438 39.480469 82.796875 39.363281 82.84375 C 39.246094 82.890625 39.128906 82.960938 39.035156 83.078125 C 38.941406 83.171875 38.871094 83.289062 38.804688 83.429688 C 38.734375 83.566406 38.734375 83.707031 38.734375 83.847656 C 38.734375 83.988281 38.757812 84.152344 38.804688 84.269531 C 38.851562 84.386719 38.917969 84.503906 39.035156 84.621094 C 39.128906 84.714844 39.246094 84.785156 39.363281 84.855469 C 39.503906 84.902344 39.644531 84.925781 39.785156 84.925781 C 39.875 84.925781 39.945312 84.925781 40.015625 84.902344 L 40.226562 84.832031 C 40.296875 84.808594 40.34375 84.761719 40.390625 84.714844 C 40.4375 84.667969 40.484375 84.621094 40.507812 84.574219 L 40.34375 84.457031 C 40.34375 84.433594 40.296875 84.480469 40.25 84.527344 Z M 43.167969 83.03125 C 43.074219 82.9375 42.957031 82.867188 42.84375 82.796875 C 42.726562 82.726562 42.5625 82.726562 42.421875 82.726562 C 42.28125 82.726562 42.117188 82.75 42 82.796875 C 41.886719 82.84375 41.769531 82.914062 41.675781 83.03125 C 41.582031 83.125 41.511719 83.242188 41.441406 83.382812 C 41.371094 83.519531 41.371094 83.660156 41.371094 83.800781 C 41.371094 83.941406 41.394531 84.105469 41.441406 84.222656 C 41.488281 84.339844 41.558594 84.457031 41.675781 84.574219 C 41.769531 84.667969 41.886719 84.738281 42 84.808594 C 42.140625 84.855469 42.28125 84.878906 42.421875 84.878906 C 42.5625 84.878906 42.726562 84.855469 42.84375 84.808594 C 42.980469 84.761719 43.074219 84.691406 43.167969 84.574219 C 43.261719 84.480469 43.332031 84.363281 43.402344 84.222656 C 43.472656 84.082031 43.472656 83.941406 43.472656 83.800781 C 43.472656 83.660156 43.449219 83.496094 43.402344 83.382812 C 43.355469 83.265625 43.261719 83.125 43.167969 83.03125 Z M 43.191406 84.128906 C 43.144531 84.246094 43.097656 84.339844 43.027344 84.410156 C 42.957031 84.480469 42.867188 84.550781 42.773438 84.597656 C 42.679688 84.644531 42.5625 84.667969 42.421875 84.667969 C 42.28125 84.667969 42.164062 84.644531 42.070312 84.597656 C 41.976562 84.550781 41.886719 84.480469 41.816406 84.410156 C 41.746094 84.339844 41.699219 84.246094 41.652344 84.128906 C 41.605469 84.011719 41.605469 83.917969 41.605469 83.800781 C 41.605469 83.683594 41.628906 83.566406 41.652344 83.472656 C 41.699219 83.359375 41.746094 83.265625 41.816406 83.195312 C 41.886719 83.125 41.976562 83.054688 42.070312 83.007812 C 42.164062 82.960938 42.28125 82.9375 42.421875 82.9375 C 42.5625 82.9375 42.679688 82.960938 42.773438 83.007812 C 42.867188 83.054688 42.957031 83.125 43.027344 83.195312 C 43.097656 83.265625 43.144531 83.359375 43.191406 83.472656 C 43.238281 83.589844 43.238281 83.683594 43.238281 83.800781 C 43.238281 83.917969 43.238281 84.035156 43.191406 84.128906 Z M 45.457031 84.433594 L 44.78125 82.773438 L 44.453125 82.773438 L 44.453125 84.832031 L 44.664062 84.832031 L 44.664062 83.054688 L 45.410156 84.832031 L 45.527344 84.832031 L 46.25 83.054688 L 46.273438 83.054688 L 46.273438 84.832031 L 46.484375 84.832031 L 46.484375 82.773438 L 46.15625 82.773438 Z M 48.609375 84.433594 L 47.910156 82.773438 L 47.605469 82.773438 L 47.605469 84.832031 L 47.816406 84.832031 L 47.816406 83.054688 L 48.5625 84.832031 L 48.65625 84.832031 L 49.402344 83.054688 L 49.402344 84.832031 L 49.613281 84.832031 L 49.613281 82.773438 L 49.308594 82.773438 Z M 51.992188 84.035156 C 51.992188 84.128906 51.992188 84.222656 51.972656 84.292969 C 51.949219 84.363281 51.925781 84.433594 51.902344 84.480469 C 51.878906 84.527344 51.832031 84.574219 51.785156 84.597656 C 51.738281 84.621094 51.714844 84.644531 51.667969 84.667969 C 51.621094 84.691406 51.597656 84.691406 51.550781 84.691406 L 51.363281 84.691406 C 51.316406 84.691406 51.292969 84.667969 51.246094 84.667969 C 51.199219 84.644531 51.175781 84.621094 51.128906 84.597656 C 51.082031 84.574219 51.058594 84.527344 51.011719 84.480469 C 50.96875 84.433594 50.96875 84.363281 50.945312 84.292969 C 50.921875 84.222656 50.921875 84.128906 50.921875 84.035156 L 50.921875 82.773438 L 50.710938 82.773438 L 50.710938 84.058594 C 50.710938 84.152344 50.710938 84.222656 50.734375 84.339844 C 50.757812 84.433594 50.78125 84.527344 50.851562 84.597656 C 50.898438 84.667969 50.988281 84.738281 51.082031 84.808594 C 51.175781 84.855469 51.292969 84.878906 51.457031 84.878906 C 51.621094 84.878906 51.738281 84.855469 51.832031 84.808594 C 51.925781 84.761719 51.992188 84.691406 52.0625 84.597656 C 52.109375 84.527344 52.15625 84.433594 52.179688 84.339844 C 52.203125 84.246094 52.203125 84.152344 52.203125 84.058594 L 52.203125 82.773438 L 51.992188 82.773438 Z M 54.773438 84.503906 L 53.558594 82.773438 L 53.300781 82.773438 L 53.300781 84.832031 L 53.511719 84.832031 L 53.511719 83.078125 L 54.726562 84.832031 L 54.984375 84.832031 L 54.984375 82.773438 L 54.773438 82.773438 Z M 56.734375 82.773438 L 55.847656 84.808594 L 56.078125 84.808594 L 56.3125 84.269531 L 57.363281 84.269531 L 57.597656 84.808594 L 57.832031 84.808594 L 56.945312 82.773438 Z M 56.382812 84.105469 L 56.828125 83.03125 L 57.269531 84.105469 Z M 58.882812 82.773438 L 58.671875 82.773438 L 58.671875 84.832031 L 59.839844 84.832031 L 59.839844 84.644531 L 58.882812 84.644531 Z M 64.042969 83.03125 C 63.949219 82.9375 63.832031 82.890625 63.691406 82.84375 C 63.574219 82.796875 63.433594 82.773438 63.316406 82.773438 L 62.640625 82.773438 L 62.640625 84.808594 L 63.316406 84.808594 C 63.433594 84.808594 63.574219 84.785156 63.691406 84.738281 C 63.808594 84.691406 63.925781 84.621094 64.042969 84.550781 C 64.15625 84.480469 64.226562 84.363281 64.296875 84.222656 C 64.367188 84.082031 64.390625 83.941406 64.390625 83.777344 C 64.390625 83.613281 64.367188 83.449219 64.296875 83.335938 C 64.226562 83.21875 64.132812 83.125 64.042969 83.03125 Z M 64.109375 84.105469 C 64.066406 84.199219 64.019531 84.292969 63.949219 84.363281 C 63.878906 84.433594 63.785156 84.503906 63.667969 84.550781 C 63.550781 84.597656 63.410156 84.621094 63.269531 84.621094 L 62.875 84.621094 L 62.875 82.960938 L 63.269531 82.960938 C 63.433594 82.960938 63.550781 82.984375 63.667969 83.03125 C 63.785156 83.078125 63.878906 83.148438 63.949219 83.21875 C 64.019531 83.289062 64.089844 83.382812 64.109375 83.472656 C 64.15625 83.566406 64.15625 83.683594 64.15625 83.777344 C 64.15625 83.917969 64.132812 84.011719 64.109375 84.105469 Z M 65.582031 83.847656 L 66.5625 83.847656 L 66.5625 83.660156 L 65.582031 83.660156 L 65.582031 82.960938 L 66.632812 82.960938 L 66.632812 82.773438 L 65.371094 82.773438 L 65.371094 84.832031 L 66.679688 84.832031 L 66.679688 84.644531 L 65.582031 84.644531 Z M 69.386719 82.960938 L 70.089844 82.960938 L 70.089844 84.832031 L 70.273438 84.832031 L 70.273438 82.960938 L 70.976562 82.960938 L 70.976562 82.773438 L 69.386719 82.773438 Z M 73.542969 83.03125 C 73.449219 82.9375 73.332031 82.867188 73.214844 82.796875 C 73.101562 82.726562 72.9375 82.726562 72.796875 82.726562 C 72.65625 82.726562 72.492188 82.75 72.375 82.796875 C 72.257812 82.84375 72.144531 82.914062 72.050781 83.03125 C 71.957031 83.125 71.886719 83.242188 71.816406 83.382812 C 71.746094 83.519531 71.746094 83.660156 71.746094 83.800781 C 71.746094 83.941406 71.769531 84.105469 71.816406 84.222656 C 71.863281 84.339844 71.933594 84.457031 72.050781 84.574219 C 72.144531 84.667969 72.257812 84.738281 72.375 84.808594 C 72.515625 84.855469 72.65625 84.878906 72.796875 84.878906 C 72.960938 84.878906 73.101562 84.855469 73.214844 84.808594 C 73.355469 84.761719 73.449219 84.691406 73.542969 84.574219 C 73.636719 84.480469 73.707031 84.363281 73.777344 84.222656 C 73.847656 84.082031 73.847656 83.941406 73.847656 83.800781 C 73.847656 83.660156 73.824219 83.496094 73.777344 83.382812 C 73.730469 83.265625 73.636719 83.125 73.542969 83.03125 Z M 73.566406 84.128906 C 73.519531 84.246094 73.472656 84.339844 73.402344 84.410156 C 73.332031 84.480469 73.238281 84.550781 73.148438 84.597656 C 73.054688 84.644531 72.9375 84.667969 72.796875 84.667969 C 72.65625 84.667969 72.539062 84.644531 72.445312 84.597656 C 72.351562 84.550781 72.257812 84.480469 72.1875 84.410156 C 72.121094 84.339844 72.074219 84.246094 72.027344 84.128906 C 71.980469 84.011719 71.980469 83.917969 71.980469 83.800781 C 71.980469 83.683594 72.003906 83.566406 72.027344 83.472656 C 72.050781 83.382812 72.121094 83.265625 72.1875 83.195312 C 72.257812 83.125 72.351562 83.054688 72.445312 83.007812 C 72.539062 82.960938 72.65625 82.9375 72.796875 82.9375 C 72.9375 82.9375 73.054688 82.960938 73.148438 83.007812 C 73.238281 83.054688 73.332031 83.125 73.402344 83.195312 C 73.472656 83.265625 73.519531 83.359375 73.566406 83.472656 C 73.613281 83.589844 73.613281 83.683594 73.613281 83.800781 C 73.613281 83.917969 73.613281 84.035156 73.566406 84.128906 Z M 76.089844 84.035156 C 76.089844 84.128906 76.089844 84.222656 76.066406 84.292969 C 76.042969 84.363281 76.019531 84.433594 75.996094 84.480469 C 75.972656 84.527344 75.925781 84.574219 75.878906 84.597656 C 75.832031 84.621094 75.808594 84.644531 75.761719 84.667969 C 75.714844 84.691406 75.691406 84.691406 75.644531 84.691406 L 75.457031 84.691406 C 75.410156 84.691406 75.386719 84.667969 75.339844 84.667969 C 75.292969 84.644531 75.269531 84.621094 75.222656 84.597656 C 75.179688 84.574219 75.15625 84.527344 75.109375 84.480469 C 75.0625 84.433594 75.0625 84.363281 75.039062 84.292969 C 75.015625 84.222656 75.015625 84.128906 75.015625 84.035156 L 75.015625 82.773438 L 74.804688 82.773438 L 74.804688 84.058594 C 74.804688 84.152344 74.804688 84.222656 74.828125 84.339844 C 74.851562 84.433594 74.875 84.527344 74.945312 84.597656 C 74.992188 84.667969 75.085938 84.738281 75.179688 84.808594 C 75.269531 84.855469 75.386719 84.878906 75.550781 84.878906 C 75.714844 84.878906 75.832031 84.855469 75.925781 84.808594 C 76.019531 84.761719 76.089844 84.691406 76.160156 84.597656 C 76.207031 84.527344 76.25 84.433594 76.273438 84.339844 C 76.296875 84.246094 76.296875 84.152344 76.296875 84.058594 L 76.296875 82.773438 L 76.089844 82.773438 Z M 78.5625 83.683594 C 78.65625 83.589844 78.703125 83.472656 78.703125 83.335938 C 78.703125 83.148438 78.632812 83.007812 78.515625 82.914062 C 78.398438 82.820312 78.234375 82.773438 78.027344 82.773438 L 77.394531 82.773438 L 77.394531 84.808594 L 77.605469 84.808594 L 77.605469 83.871094 L 77.957031 83.871094 L 78.515625 84.832031 L 78.773438 84.832031 L 78.191406 83.871094 C 78.351562 83.847656 78.46875 83.777344 78.5625 83.683594 Z M 77.605469 83.683594 L 77.605469 82.984375 L 77.980469 82.984375 C 78.074219 82.984375 78.144531 82.984375 78.214844 83.007812 C 78.28125 83.03125 78.328125 83.054688 78.375 83.078125 C 78.421875 83.101562 78.445312 83.148438 78.46875 83.195312 C 78.492188 83.242188 78.492188 83.289062 78.492188 83.335938 C 78.492188 83.382812 78.492188 83.429688 78.46875 83.472656 C 78.445312 83.519531 78.421875 83.542969 78.375 83.589844 C 78.328125 83.613281 78.28125 83.636719 78.214844 83.660156 C 78.144531 83.683594 78.074219 83.683594 77.980469 83.683594 Z M 79.894531 82.773438 L 79.683594 82.773438 L 79.683594 84.808594 L 79.894531 84.808594 Z M 81.925781 83.824219 C 81.855469 83.777344 81.761719 83.753906 81.667969 83.730469 C 81.574219 83.707031 81.480469 83.683594 81.410156 83.636719 C 81.339844 83.613281 81.277344 83.574219 81.226562 83.519531 C 81.179688 83.472656 81.15625 83.40625 81.15625 83.3125 C 81.15625 83.242188 81.179688 83.195312 81.203125 83.148438 C 81.226562 83.101562 81.25 83.054688 81.292969 83.03125 L 81.433594 82.960938 C 81.480469 82.9375 81.527344 82.9375 81.597656 82.9375 C 81.761719 82.9375 81.902344 83.007812 81.996094 83.148438 L 82.183594 83.007812 C 82.121094 82.917969 82.027344 82.851562 81.925781 82.820312 C 81.832031 82.796875 81.714844 82.773438 81.621094 82.773438 C 81.527344 82.773438 81.457031 82.773438 81.386719 82.796875 C 81.316406 82.820312 81.25 82.867188 81.179688 82.914062 C 81.109375 82.960938 81.0625 83.03125 81.039062 83.101562 C 80.992188 83.171875 80.992188 83.265625 80.992188 83.359375 C 80.992188 83.449219 81.015625 83.519531 81.039062 83.589844 C 81.0625 83.660156 81.109375 83.707031 81.15625 83.753906 C 81.203125 83.800781 81.25 83.824219 81.316406 83.847656 C 81.386719 83.871094 81.433594 83.894531 81.503906 83.917969 C 81.574219 83.941406 81.644531 83.964844 81.691406 83.988281 C 81.761719 84.011719 81.808594 84.035156 81.855469 84.058594 C 81.902344 84.082031 81.949219 84.128906 81.972656 84.175781 C 81.996094 84.222656 82.019531 84.292969 82.019531 84.363281 C 82.019531 84.433594 81.996094 84.480469 81.972656 84.527344 C 81.949219 84.574219 81.902344 84.621094 81.878906 84.644531 L 81.738281 84.714844 C 81.691406 84.738281 81.644531 84.738281 81.574219 84.738281 C 81.457031 84.738281 81.363281 84.714844 81.292969 84.667969 C 81.226562 84.621094 81.15625 84.550781 81.109375 84.480469 L 80.921875 84.621094 C 80.992188 84.738281 81.085938 84.808594 81.203125 84.855469 C 81.316406 84.902344 81.433594 84.925781 81.550781 84.925781 C 81.621094 84.925781 81.714844 84.902344 81.785156 84.878906 C 81.855469 84.855469 81.925781 84.808594 81.996094 84.761719 C 82.066406 84.714844 82.113281 84.644531 82.160156 84.574219 C 82.207031 84.503906 82.230469 84.410156 82.230469 84.316406 C 82.230469 84.199219 82.207031 84.105469 82.160156 84.035156 C 82.066406 83.917969 81.996094 83.871094 81.925781 83.824219 Z M 84.214844 84.433594 L 83.511719 82.773438 L 83.1875 82.773438 L 83.1875 84.832031 L 83.394531 84.832031 L 83.394531 83.054688 L 83.417969 83.054688 L 84.144531 84.832031 L 84.261719 84.832031 L 84.984375 83.054688 L 85.007812 83.054688 L 85.007812 84.832031 L 85.21875 84.832031 L 85.21875 82.773438 L 84.890625 82.773438 Z M 86.546875 83.847656 L 87.527344 83.847656 L 87.527344 83.660156 L 86.546875 83.660156 L 86.546875 82.960938 L 87.597656 82.960938 L 87.597656 82.773438 L 86.335938 82.773438 L 86.335938 84.832031 L 87.644531 84.832031 L 87.644531 84.644531 L 86.546875 84.644531 Z M 58.085938 70.484375 L 56.078125 76.523438 L 56.851562 76.523438 L 57.363281 74.929688 L 59.488281 74.929688 L 60.003906 76.523438 L 60.796875 76.523438 L 58.789062 70.484375 Z M 57.597656 74.183594 L 58.4375 71.511719 L 59.253906 74.183594 Z M 1.214844 70.484375 L 0 70.484375 L 0 76.523438 L 0.746094 76.523438 L 0.746094 73.996094 L 1.355469 73.996094 C 2.195312 73.996094 3.082031 73.527344 3.082031 72.238281 C 3.105469 71.09375 2.453125 70.484375 1.214844 70.484375 Z M 1.167969 73.269531 L 0.769531 73.269531 L 0.769531 71.210938 L 1.097656 71.210938 C 1.585938 71.210938 2.3125 71.210938 2.3125 72.238281 C 2.3125 72.964844 1.984375 73.269531 1.167969 73.269531 Z M 9.386719 70.484375 L 7.378906 76.523438 L 8.148438 76.523438 L 8.660156 74.929688 L 10.785156 74.929688 L 11.300781 76.523438 L 12.09375 76.523438 L 10.085938 70.484375 Z M 8.894531 74.183594 L 9.734375 71.511719 L 10.554688 74.183594 Z M 17.488281 73.738281 L 19.332031 73.738281 L 19.332031 73.011719 L 17.488281 73.011719 L 17.488281 71.1875 L 19.425781 71.1875 L 19.425781 70.484375 L 16.714844 70.484375 L 16.714844 76.5 L 19.519531 76.5 L 19.519531 75.796875 L 17.488281 75.796875 Z M 25.820312 72.941406 C 25.332031 72.589844 25.074219 72.378906 25.074219 71.863281 C 25.074219 71.140625 25.84375 71.140625 25.890625 71.140625 C 26.3125 71.140625 26.546875 71.28125 26.753906 71.394531 L 26.917969 71.488281 L 26.964844 70.625 L 26.847656 70.578125 C 26.6875 70.53125 26.382812 70.390625 25.9375 70.390625 C 25.191406 70.390625 24.304688 70.789062 24.304688 71.910156 C 24.304688 72.613281 24.5625 73.011719 25.402344 73.574219 C 26.125 74.066406 26.453125 74.300781 26.453125 74.882812 C 26.453125 74.929688 26.453125 75.820312 25.542969 75.820312 C 25.425781 75.820312 24.980469 75.796875 24.609375 75.46875 L 24.421875 75.304688 L 24.375 76.21875 L 24.445312 76.265625 C 24.726562 76.453125 25.167969 76.546875 25.613281 76.546875 C 26.59375 76.546875 27.269531 75.84375 27.269531 74.8125 C 27.222656 73.996094 26.894531 73.714844 25.820312 72.941406 Z M 32.941406 70.484375 L 32.195312 70.484375 L 32.195312 76.523438 L 32.941406 76.523438 Z M 45.175781 70.484375 L 44.3125 70.484375 L 44.3125 76.523438 L 45.316406 76.523438 C 47.066406 76.523438 48.117188 75.375 48.117188 73.433594 C 48.117188 71.441406 47.160156 70.484375 45.175781 70.484375 Z M 45.457031 75.796875 L 45.035156 75.796875 L 45.035156 71.210938 L 45.363281 71.210938 C 47.089844 71.210938 47.324219 72.425781 47.324219 73.503906 C 47.324219 74.929688 46.625 75.796875 45.457031 75.796875 Z M 66.164062 70.484375 L 65.417969 70.484375 L 65.417969 76.523438 L 66.164062 76.523438 Z M 73.519531 70.484375 L 72.796875 70.484375 L 70.789062 76.523438 L 71.558594 76.523438 L 72.074219 74.929688 L 74.195312 74.929688 L 74.710938 76.523438 L 75.503906 76.523438 Z M 72.304688 74.183594 L 73.148438 71.511719 L 73.964844 74.183594 Z M 83.628906 76.335938 L 83.605469 75.679688 L 83.582031 75.492188 L 83.417969 75.5625 C 83.117188 75.703125 82.90625 75.796875 82.507812 75.796875 C 82.320312 75.796875 80.734375 75.726562 80.734375 73.433594 C 80.734375 71.210938 82.207031 71.09375 82.507812 71.09375 C 82.90625 71.09375 83.300781 71.257812 83.417969 71.347656 L 83.605469 71.511719 L 83.652344 70.601562 L 83.582031 70.554688 C 83.277344 70.414062 82.859375 70.34375 82.554688 70.34375 C 80.640625 70.34375 79.964844 71.910156 79.964844 73.386719 C 79.964844 74.8125 80.640625 76.5 82.53125 76.5 C 83.046875 76.5 83.417969 76.359375 83.558594 76.3125 Z M 91.101562 71.140625 C 91.496094 71.140625 91.894531 71.304688 92.011719 71.394531 L 92.199219 71.558594 L 92.246094 70.648438 L 92.175781 70.601562 C 91.871094 70.460938 91.449219 70.390625 91.148438 70.390625 C 89.234375 70.390625 88.554688 71.957031 88.554688 73.433594 C 88.554688 74.859375 89.234375 76.546875 91.125 76.546875 C 91.636719 76.546875 92.011719 76.40625 92.152344 76.359375 L 92.222656 76.335938 L 92.199219 75.679688 L 92.175781 75.492188 L 92.011719 75.5625 C 91.707031 75.703125 91.496094 75.796875 91.101562 75.796875 C 90.914062 75.796875 89.328125 75.726562 89.328125 73.433594 C 89.328125 71.257812 90.796875 71.140625 91.101562 71.140625 Z M 98.058594 70.484375 L 97.3125 70.484375 L 97.3125 76.523438 L 98.058594 76.523438 Z M 106.207031 70.484375 L 106.207031 74.253906 C 106.207031 75.070312 106.066406 75.84375 105.132812 75.84375 C 104.363281 75.84375 104.058594 75.375 104.058594 74.253906 L 104.058594 70.484375 L 103.3125 70.484375 L 103.3125 74.277344 C 103.3125 75.820312 103.917969 76.59375 105.15625 76.59375 C 106.347656 76.59375 107 75.796875 107 74.277344 L 107 70.484375 Z M 106.207031 70.484375 "/>
<path style=" stroke:none;fill-rule:nonzero;fill:rgb(95.294118%,84.705883%,39.215687%);fill-opacity:1;" d="M 51.621094 72.824219 L 51.480469 72.707031 C 53 70.8125 52.53125 68.421875 54.050781 68.050781 C 54.609375 67.910156 55.125 68.304688 55.261719 68.867188 C 55.613281 70.296875 53.140625 70.953125 51.621094 72.824219 Z M 51.621094 72.824219 "/>
</g>
</svg>
